<?xml version="1.0" standalone="no"?>
<!DOCTYPE svg PUBLIC "-//W3C//DTD SVG 20010904//EN"
 "http://www.w3.org/TR/2001/REC-SVG-20010904/DTD/svg10.dtd">
<svg version="1.0" xmlns="http://www.w3.org/2000/svg"
 width="760.000000pt" height="760.000000pt" viewBox="0 0 760.000000 760.000000"
 preserveAspectRatio="xMidYMid meet">
<metadata>
Created by potrace 1.14, written by Peter Selinger 2001-2017
</metadata>
<g transform="translate(0.000000,760.000000) scale(0.100000,-0.100000)"
fill="#000000" stroke="none">
<path d="M1990 7296 c-136 -30 -190 -78 -710 -625 -318 -335 -350 -375 -350
-436 0 -14 11 -42 25 -62 32 -49 74 -74 345 -214 167 -86 279 -211 319 -354
28 -103 31 -307 31 -2177 0 -2095 -3 -1993 56 -2109 32 -64 118 -164 173 -201
110 -76 521 -383 735 -551 125 -98 283 -187 332 -187 10 0 43 -5 74 -12 121
-25 314 42 455 159 174 143 425 351 474 392 30 25 69 57 86 71 18 14 83 67
144 118 66 54 121 92 134 92 25 0 59 -27 290 -232 156 -139 265 -232 452 -387
44 -36 125 -104 180 -150 133 -112 177 -131 301 -131 145 0 163 12 441 294
406 411 627 646 656 694 23 38 27 56 23 92 -3 39 -11 51 -54 90 -28 25 -99 70
-158 100 -148 76 -210 118 -270 182 -75 79 -100 141 -143 346 -8 38 -11 592
-11 1903 0 1292 -3 1871 -11 1921 -23 150 -80 297 -155 399 -50 69 -148 157
-300 270 -74 55 -185 142 -247 192 -288 236 -556 445 -597 464 -187 88 -345
85 -560 -11 -33 -15 -149 -96 -235 -166 -38 -31 -146 -114 -240 -185 -93 -71
-195 -148 -225 -172 -264 -207 -274 -212 -342 -177 -18 9 -94 71 -171 138 -77
66 -161 139 -187 161 -26 22 -126 108 -221 190 -218 188 -253 216 -309 243
-37 17 -149 45 -169 41 -3 -1 -31 -7 -61 -13z m2463 -442 c21 -14 132 -93 245
-176 114 -83 236 -172 271 -197 133 -96 211 -162 240 -204 53 -78 87 -166 111
-286 21 -109 33 -1457 24 -2826 -4 -726 -8 -1345 -8 -1376 0 -91 35 -136 219
-285 90 -73 259 -200 321 -241 64 -44 83 -67 102 -122 20 -57 -26 -166 -85
-202 -27 -17 -38 -18 -70 -10 -64 18 -587 414 -685 518 -54 59 -89 124 -115
214 -17 61 -18 156 -15 2134 4 2244 6 2129 -49 2241 -38 75 -106 142 -219 217
-122 80 -388 280 -461 344 -61 55 -81 92 -81 148 0 42 31 106 63 131 48 38
112 31 192 -22z m-2611 -133 c33 -18 273 -206 546 -427 190 -155 230 -201 261
-304 6 -19 16 -51 23 -70 10 -28 14 -458 18 -2125 l5 -2090 21 -45 c33 -72 65
-102 313 -300 130 -104 244 -203 254 -220 48 -81 4 -169 -108 -216 -70 -29
-94 -14 -463 284 -73 59 -156 125 -183 147 -73 59 -113 125 -158 266 -8 26
-11 585 -11 2113 0 2282 4 2136 -59 2223 -16 22 -91 86 -167 143 -300 224
-521 400 -532 425 -28 62 4 143 77 192 43 29 117 31 163 4z m1869 -577 c84
-25 305 -162 449 -278 133 -109 195 -172 226 -233 l29 -58 -4 -1535 c-2 -844
-7 -1686 -11 -1870 -7 -329 -7 -336 -32 -390 -14 -30 -48 -81 -77 -112 -90
-99 -186 -141 -319 -140 -92 0 -130 12 -280 89 -260 134 -392 291 -441 523
-16 75 -10 3554 6 3618 18 74 90 204 147 267 111 124 188 154 307 119z"/>
</g>
</svg>
