<?xml version="1.0" standalone="no"?>
<!DOCTYPE svg PUBLIC "-//W3C//DTD SVG 20010904//EN"
 "http://www.w3.org/TR/2001/REC-SVG-20010904/DTD/svg10.dtd">
<svg version="1.0" xmlns="http://www.w3.org/2000/svg"
 width="629.000000pt" height="629.000000pt" viewBox="0 0 629.000000 629.000000"
 preserveAspectRatio="xMidYMid meet">
<metadata>
Created by potrace 1.14, written by Peter Selinger 2001-2017
</metadata>
<g transform="translate(0.000000,629.000000) scale(0.100000,-0.100000)"
fill="#000000" stroke="none">
<path d="M3470 6280 c-190 -16 -439 -59 -524 -91 -27 -11 -59 -19 -72 -19 -13
0 -24 -4 -24 -10 0 -5 -6 -10 -14 -10 -13 0 -74 -26 -191 -81 -58 -27 -202
-113 -227 -136 -10 -9 -18 -12 -18 -8 0 4 -8 -2 -19 -13 -10 -12 -20 -22 -23
-22 -12 0 -175 -162 -226 -224 -31 -39 -63 -77 -69 -84 -7 -7 -13 -17 -13 -22
0 -5 -6 -15 -14 -23 -8 -7 -31 -47 -51 -88 -21 -41 -40 -76 -44 -79 -3 -3 -12
-23 -18 -45 -6 -22 -23 -72 -36 -112 -38 -110 -58 -241 -64 -423 -10 -306 44
-539 194 -839 48 -96 96 -184 107 -196 38 -41 86 -114 86 -130 0 -8 6 -15 13
-15 7 0 18 -9 24 -19 7 -11 39 -51 72 -89 33 -38 57 -72 54 -76 -4 -3 -1 -6 5
-6 12 0 122 -110 122 -122 0 -5 7 -8 15 -8 8 0 15 -6 15 -12 1 -7 19 -26 40
-43 21 -16 39 -36 40 -42 0 -7 6 -13 14 -13 7 0 20 -8 27 -17 8 -9 55 -50 104
-91 50 -41 94 -80 98 -88 4 -8 13 -14 19 -14 10 0 44 -26 115 -86 27 -24 61
-51 137 -109 32 -25 77 -61 100 -80 22 -19 85 -69 139 -111 53 -42 97 -81 97
-85 0 -5 5 -9 12 -9 32 0 418 -381 418 -413 0 -3 12 -19 28 -36 80 -91 190
-334 213 -471 6 -30 14 -77 19 -105 21 -122 2 -315 -44 -436 -26 -67 -55 -130
-65 -139 -3 -3 -15 -21 -25 -40 -11 -19 -22 -37 -25 -40 -4 -3 -17 -22 -31
-42 -14 -21 -29 -38 -33 -38 -11 0 -37 -26 -37 -37 -1 -13 -138 -114 -216
-159 -75 -43 -161 -77 -174 -69 -5 3 -10 1 -12 -5 -1 -5 -19 -11 -40 -12 -20
-2 -34 -6 -32 -9 6 -10 -99 -28 -229 -40 -234 -21 -498 28 -694 129 -29 15
-53 30 -53 35 0 4 -8 7 -17 7 -41 0 -198 137 -273 237 -28 38 -55 73 -60 79
-5 7 -6 15 -3 18 4 3 2 6 -4 6 -12 0 -89 163 -126 270 -42 119 -62 225 -77
409 -8 96 -13 118 -31 138 -52 54 -126 10 -147 -89 -7 -29 -14 -116 -18 -193
-3 -77 -9 -176 -13 -220 -10 -99 -16 -359 -16 -657 0 -220 1 -229 23 -270 19
-35 37 -49 90 -76 200 -97 487 -173 767 -204 185 -20 698 -17 855 5 397 56
645 153 977 382 79 54 314 292 352 356 8 13 31 51 51 84 60 99 130 246 130
274 0 6 5 11 12 11 6 0 9 2 6 5 -3 3 4 36 15 73 58 200 70 286 71 517 0 123
-5 254 -12 298 -13 87 -63 299 -72 307 -3 3 -12 25 -19 50 -7 25 -22 64 -33
87 -11 23 -20 48 -22 55 -1 7 -5 19 -9 26 -5 6 -5 12 0 12 4 0 0 5 -9 11 -10
5 -18 14 -18 18 0 17 -78 140 -200 315 -8 11 -47 60 -87 108 -40 47 -73 91
-73 98 0 6 -7 13 -16 17 -16 6 -64 50 -64 58 0 3 -18 22 -40 42 -22 21 -40 44
-40 51 0 6 -6 12 -13 12 -7 0 -50 36 -96 80 -47 44 -87 80 -90 80 -3 0 -31 24
-62 53 -31 29 -71 63 -89 77 -19 14 -50 40 -69 57 -20 18 -76 63 -126 100 -49
36 -115 87 -145 112 -30 26 -84 69 -120 96 -36 27 -70 54 -76 60 -33 29 -55
45 -64 45 -5 0 -15 8 -22 18 -7 9 -21 22 -29 27 -43 27 -133 100 -195 159 -38
36 -72 66 -76 66 -5 0 -8 7 -8 15 0 8 -6 15 -12 15 -7 0 -22 14 -33 30 -11 16
-26 30 -32 30 -7 0 -13 3 -13 8 0 4 -17 26 -38 49 -80 89 -184 252 -198 311
-4 15 -10 29 -14 32 -14 9 -50 198 -50 257 1 123 37 303 61 303 5 0 9 13 9 29
0 49 118 231 149 231 7 0 10 4 7 9 -7 10 62 67 76 63 5 -1 7 2 4 7 -8 12 72
63 149 96 33 14 68 30 77 35 10 6 26 10 35 10 10 0 38 7 62 15 24 9 52 13 62
10 10 -4 19 -2 19 3 0 5 54 15 121 22 130 14 265 5 414 -27 39 -8 86 -19 105
-23 45 -9 160 -61 160 -72 0 -4 6 -8 13 -8 6 0 36 -18 65 -40 29 -22 56 -40
61 -40 4 0 19 -12 33 -27 15 -16 45 -46 67 -67 23 -22 41 -44 41 -50 0 -6 9
-17 20 -24 11 -7 20 -19 20 -26 0 -8 4 -16 8 -18 20 -8 122 -188 122 -214 0
-3 6 -20 14 -37 25 -58 46 -155 52 -244 4 -57 12 -94 22 -105 8 -10 11 -18 6
-19 -5 0 5 -5 21 -10 30 -9 96 -2 93 10 -1 3 4 17 12 31 16 28 28 256 29 545
1 94 8 273 16 398 8 128 10 238 6 250 -16 41 -46 55 -191 90 -202 50 -345 74
-560 97 -132 14 -504 20 -630 10z"/>
<path d="M728 5369 c-23 -9 -28 -17 -28 -43 0 -45 23 -54 160 -61 111 -5 130
-7 194 -21 99 -21 184 -96 211 -186 9 -29 19 -100 23 -158 10 -145 9 -3083 -1
-3305 -12 -273 -29 -394 -67 -483 -43 -99 -101 -127 -290 -138 -123 -8 -140
-14 -140 -54 0 -56 24 -61 246 -60 215 0 441 8 490 15 25 4 30 10 31 33 0 71
14 412 18 447 2 22 7 83 10 135 12 208 45 285 142 334 18 9 47 16 65 16 39 0
106 -29 129 -56 27 -31 49 -110 49 -177 0 -53 15 -165 34 -257 8 -38 55 -190
69 -224 30 -75 120 -231 162 -284 11 -13 458 -36 700 -36 351 1 587 27 887
101 l148 36 29 71 c39 97 70 286 51 316 -6 9 -36 -1 -111 -37 -142 -68 -163
-77 -244 -102 -98 -29 -229 -57 -370 -77 -150 -22 -565 -25 -697 -6 -286 42
-483 147 -521 279 -15 49 -29 177 -42 363 -2 41 -8 498 -11 1014 l-7 939 -30
45 c-115 171 -218 419 -265 642 -60 283 -40 638 53 899 28 79 31 77 -112 78
-71 0 -310 4 -533 7 -281 4 -413 3 -432 -5z"/>
<path d="M2750 5314 c-11 -38 -24 -104 -27 -146 -6 -78 -3 -85 31 -79 9 2 178
-16 211 -23 11 -2 43 -7 70 -10 101 -15 323 -68 425 -102 351 -118 738 -394
930 -664 155 -217 283 -491 326 -700 3 -14 9 -43 14 -65 32 -144 53 -371 53
-570 l-1 -140 33 -55 c181 -305 279 -626 286 -940 1 -77 7 -103 20 -94 9 5 85
119 143 214 46 75 120 229 162 337 209 541 216 1226 17 1738 -114 294 -291
556 -520 769 l-42 39 -37 -32 c-47 -42 -80 -54 -132 -47 -104 12 -159 88 -169
233 l-6 86 -86 39 c-129 60 -137 63 -257 102 -222 72 -487 126 -714 146 -69 6
-145 12 -170 15 -25 2 -156 7 -292 11 l-246 7 -22 -69z"/>
</g>
</svg>
